<?xml version="1.0" encoding="iso-8859-1"?>
<!-- Generator: Adobe Illustrator 19.0.0, SVG Export Plug-In . SVG Version: 6.00 Build 0)  -->
<svg version="1.1" id="Capa_1" xmlns="http://www.w3.org/2000/svg" xmlns:xlink="http://www.w3.org/1999/xlink" x="0px" y="0px"
	 viewBox="0 0 506.591 506.591" style="enable-background:new 0 0 506.591 506.591;" xml:space="preserve">
<g>
	<path d="M506.591,57.638L448.953,0l-91.591,91.591H0v415h415V149.229L506.591,57.638z M247.5,295.515l-36.424-36.424
		L424.469,45.697l36.425,36.425L247.5,295.515z M203.951,273.18l29.63,29.63L193.871,313.5L203.951,273.18z M485.378,57.638
		L471.5,71.516l-36.425-36.425l13.878-13.878L485.378,57.638z M400,491.591H15v-385h327.362l-41,41H55.5v15h230.862l-33,33H55.5v15
		h182.862l-33,33H55.5v15h136.636l-8.25,33H55.5v15h124.636l-7.007,28.028l77.288-20.807l7.221-7.221H359.5v-15h-86.862l33-33H359.5
		v-15h-38.862L400,164.229V491.591z"/>
	<rect x="55.5" y="387.591" width="304" height="15"/>
	<rect x="55.5" y="435.591" width="304" height="15"/>
	<rect x="55.5" y="339.591" width="304" height="15"/>
</g>
<g>
</g>
<g>
</g>
<g>
</g>
<g>
</g>
<g>
</g>
<g>
</g>
<g>
</g>
<g>
</g>
<g>
</g>
<g>
</g>
<g>
</g>
<g>
</g>
<g>
</g>
<g>
</g>
<g>
</g>
</svg>
